<?xml version="1.0" encoding="utf-8"?>
<!-- Generator: Adobe Illustrator 20.1.0, SVG Export Plug-In . SVG Version: 6.00 Build 0)  -->
<!DOCTYPE svg PUBLIC "-//W3C//DTD SVG 1.1//EN" "http://www.w3.org/Graphics/SVG/1.1/DTD/svg11.dtd">
<svg version="1.1" id="Layer_1" xmlns="http://www.w3.org/2000/svg" xmlns:xlink="http://www.w3.org/1999/xlink" x="0px" y="0px"
	 width="758px" height="766px" viewBox="0 0 758 766" style="enable-background:new 0 0 758 766;" xml:space="preserve">
<style type="text/css">
	.st0{fill:#FFFFFF;}
	.st1{fill:#1EAEFA;}
</style>
<g>
	<path class="st0" d="M380.9,751.1L380.9,751.1C177.6,751.1,12.8,586.3,12.8,383l0,0c0-203.3,164.8-368.1,368.1-368.1l0,0
		C584.2,14.9,749,179.7,749,383l0,0C749,586.3,584.2,751.1,380.9,751.1z"/>
	<g>
		<path class="st1" d="M336.3,367.5c0,0,43.8-3.3,43.8-54.6s-35.8-76.4-81.2-76.4h-83.5h-2.5h-63.3v286.9h63.3h2.5h83.5
			c0,0,91.1,2.9,91.1-84.7C390,438.7,394,367.5,336.3,367.5z M288.1,287.5h10.8c0,0,20.3,0,20.3,29.9c0,29.8-11.9,34.2-25.5,34.2
			h-78.3v-64h72.7V287.5z M294.7,472.4h-79.3v-76.7h83.5c0,0,30.3-0.4,30.3,39.4C329.1,468.7,306.5,472.2,294.7,472.4z"/>
		<path class="st1" d="M511.6,309.5c-110.3,0-110.2,110.2-110.2,110.2s-7.6,109.7,110.2,109.7c0,0,98.1,5.6,98.1-76.3h-50.5
			c0,0,1.7,30.9-46,30.9c0,0-50.5,3.4-50.5-49.9h148.7C611.4,434,627.7,309.5,511.6,309.5z M462.2,395.7c0,0,6.2-44.2,50.5-44.2
			s43.7,44.2,43.7,44.2H462.2z"/>
		<rect x="449.8" y="253.4" class="st1" width="118.4" height="35.3"/>
	</g>
</g>
</svg>
