<?xml version="1.0" encoding="utf-8"?>
<!-- Generator: Adobe Illustrator 19.1.0, SVG Export Plug-In . SVG Version: 6.00 Build 0)  -->
<!DOCTYPE svg PUBLIC "-//W3C//DTD SVG 1.1//EN" "http://www.w3.org/Graphics/SVG/1.1/DTD/svg11.dtd">
<svg version="1.1" id="Layer_1" xmlns="http://www.w3.org/2000/svg" xmlns:xlink="http://www.w3.org/1999/xlink" x="0px" y="0px"
	 width="758px" height="766px" viewBox="73 14 758 766" style="enable-background:new 73 14 758 766;" xml:space="preserve">
<style type="text/css">
	.st0{fill:#FFFFFF;}
	.st1{fill:#032B45;}
</style>
<g>
	<path class="st0" d="M452,765.1L452,765.1C248.7,765.1,83.9,600.3,83.9,397l0,0C83.9,193.7,248.7,28.9,452,28.9l0,0
		c203.3,0,368.1,164.8,368.1,368.1l0,0C820.1,600.3,655.3,765.1,452,765.1z"/>
	<g>
		<path class="st1" d="M407.4,381.5c0,0,43.8-3.3,43.8-54.6c0-51.3-35.8-76.4-81.2-76.4h-83.5H284h-63.3v286.9H284h2.5H370
			c0,0,91.1,2.9,91.1-84.7C461.1,452.7,465.1,381.5,407.4,381.5z M359.2,301.5H370c0,0,20.3,0,20.3,29.9c0,29.8-11.9,34.2-25.5,34.2
			h-78.3v-64H359.2z M365.8,486.4h-79.3v-76.7H370c0,0,30.3-0.4,30.3,39.4C400.2,482.7,377.6,486.2,365.8,486.4z"/>
		<path class="st1" d="M582.7,323.5c-110.3,0-110.2,110.2-110.2,110.2s-7.6,109.7,110.2,109.7c0,0,98.1,5.6,98.1-76.3h-50.5
			c0,0,1.7,30.9-46,30.9c0,0-50.5,3.4-50.5-49.9h148.7C682.5,448,698.8,323.5,582.7,323.5z M533.3,409.7c0,0,6.2-44.2,50.5-44.2
			c44.3,0,43.7,44.2,43.7,44.2H533.3z"/>
		<rect x="520.9" y="267.4" class="st1" width="118.4" height="35.3"/>
	</g>
</g>
</svg>
