<?xml version="1.0" encoding="utf-8"?>
<!-- Generator: Adobe Illustrator 19.1.0, SVG Export Plug-In . SVG Version: 6.00 Build 0)  -->
<!DOCTYPE svg PUBLIC "-//W3C//DTD SVG 1.1//EN" "http://www.w3.org/Graphics/SVG/1.1/DTD/svg11.dtd">
<svg version="1.1" id="Layer_1" xmlns="http://www.w3.org/2000/svg" xmlns:xlink="http://www.w3.org/1999/xlink" x="0px" y="0px"
	 width="758px" height="766px" viewBox="73 14 758 766" style="enable-background:new 73 14 758 766;" xml:space="preserve">
<style type="text/css">
	.st0{fill:#FFFFFF;}
	.st1{fill:#032B45;}
</style>
<g>
	<path class="st0" d="M452,765.1L452,765.1C248.7,765.1,83.9,600.3,83.9,397l0,0C83.9,193.7,248.7,28.9,452,28.9l0,0
		c203.3,0,368.1,164.8,368.1,368.1l0,0C820.1,600.3,655.3,765.1,452,765.1z"/>
	<path class="st1" d="M289.1,177.8h325.8c31,0,56.3,25.3,56.3,56.3v325.8c0,30.9-25.3,56.2-56.3,56.2H289.1
		c-31,0-56.3-25.3-56.3-56.2V234.1C232.8,203.1,258.1,177.8,289.1,177.8z M552.2,226.5c-10.9,0-19.7,8.9-19.7,19.8v47.2
		c0,10.9,8.9,19.7,19.7,19.7h49.5c10.9,0,19.7-8.9,19.7-19.7v-47.2c0-10.9-8.9-19.8-19.7-19.8H552.2z M621.6,363.2H583
		c3.7,11.9,5.6,24.5,5.6,37.6c0,72.9-61,132-136.3,132c-75.2,0-136.3-59.1-136.3-132c0-13.1,2-25.7,5.6-37.6h-40.2v185.2
		c0,9.6,7.8,17.4,17.4,17.4h305.3c9.6,0,17.4-7.8,17.4-17.4L621.6,363.2L621.6,363.2z M452.4,310.8c-48.6,0-88,38.2-88,85.3
		s39.4,85.3,88,85.3s88-38.2,88-85.3C540.5,348.9,501,310.8,452.4,310.8z"/>
</g>
</svg>
