<?xml version="1.0" encoding="utf-8"?>
<!-- Generator: Adobe Illustrator 20.1.0, SVG Export Plug-In . SVG Version: 6.00 Build 0)  -->
<!DOCTYPE svg PUBLIC "-//W3C//DTD SVG 1.1//EN" "http://www.w3.org/Graphics/SVG/1.1/DTD/svg11.dtd">
<svg version="1.1" id="Layer_1" xmlns="http://www.w3.org/2000/svg" xmlns:xlink="http://www.w3.org/1999/xlink" x="0px" y="0px"
	 width="758px" height="766px" viewBox="0 0 758 766" style="enable-background:new 0 0 758 766;" xml:space="preserve">
<style type="text/css">
	.st0{fill:#FFFFFF;}
	.st1{fill:#1EAEFA;}
</style>
<g>
	<path class="st0" d="M379,751.1L379,751.1C175.7,751.1,10.9,586.3,10.9,383l0,0C10.9,179.7,175.7,14.9,379,14.9l0,0
		c203.3,0,368.1,164.8,368.1,368.1l0,0C747.1,586.3,582.3,751.1,379,751.1z"/>
	<path class="st1" d="M216.1,163.8h325.8c31,0,56.3,25.3,56.3,56.3v325.8c0,30.9-25.3,56.2-56.3,56.2H216.1
		c-31,0-56.3-25.3-56.3-56.2V220.1C159.8,189.1,185.1,163.8,216.1,163.8z M479.2,212.5c-10.9,0-19.7,8.9-19.7,19.8v47.2
		c0,10.9,8.9,19.7,19.7,19.7h49.5c10.9,0,19.7-8.9,19.7-19.7v-47.2c0-10.9-8.9-19.8-19.7-19.8H479.2z M548.6,349.2H510
		c3.7,11.9,5.6,24.5,5.6,37.6c0,72.9-61,132-136.3,132c-75.2,0-136.3-59.1-136.3-132c0-13.1,2-25.7,5.6-37.6h-40.2v185.2
		c0,9.6,7.8,17.4,17.4,17.4h305.3c9.6,0,17.4-7.8,17.4-17.4L548.6,349.2L548.6,349.2z M379.4,296.8c-48.6,0-88,38.2-88,85.3
		s39.4,85.3,88,85.3s88-38.2,88-85.3C467.5,334.9,428,296.8,379.4,296.8z"/>
</g>
</svg>
