<?xml version="1.0" encoding="utf-8"?>
<!-- Generator: Adobe Illustrator 20.1.0, SVG Export Plug-In . SVG Version: 6.00 Build 0)  -->
<!DOCTYPE svg PUBLIC "-//W3C//DTD SVG 1.1//EN" "http://www.w3.org/Graphics/SVG/1.1/DTD/svg11.dtd">
<svg version="1.1" id="Layer_1" xmlns="http://www.w3.org/2000/svg" xmlns:xlink="http://www.w3.org/1999/xlink" x="0px" y="0px"
	 width="758px" height="766px" viewBox="0 0 758 766" style="enable-background:new 0 0 758 766;" xml:space="preserve">
<style type="text/css">
	.st0{fill:#FFFFFF;}
	.st1{fill:#1EAEFA;}
</style>
<g>
	<path class="st0" d="M379,751.1L379,751.1C175.7,751.1,10.9,586.3,10.9,383l0,0C10.9,179.7,175.7,14.9,379,14.9l0,0
		c203.3,0,368.1,164.8,368.1,368.1l0,0C747.1,586.3,582.3,751.1,379,751.1z"/>
	<g>
		<path class="st1" d="M160.1,307.1H254v301.7h-93.9V307.1z M207.1,157.2c30,0,54.4,24.4,54.4,54.4S237.2,266,207.1,266
			s-54.4-24.4-54.4-54.4C152.6,181.5,176.9,157.2,207.1,157.2"/>
		<path class="st1" d="M312.9,307.1h89.9v41.2h1.3c12.5-23.7,43.1-48.7,88.8-48.7c94.9,0,112.5,62.5,112.5,143.7v165.5h-93.7V462.2
			c0-35-0.7-80-48.8-80c-48.8,0-56.3,38.1-56.3,77.4v149.3h-93.7L312.9,307.1L312.9,307.1z"/>
	</g>
</g>
</svg>
