<?xml version="1.0" encoding="utf-8"?>
<!-- Generator: Adobe Illustrator 19.1.0, SVG Export Plug-In . SVG Version: 6.00 Build 0)  -->
<!DOCTYPE svg PUBLIC "-//W3C//DTD SVG 1.1//EN" "http://www.w3.org/Graphics/SVG/1.1/DTD/svg11.dtd">
<svg version="1.1" id="Layer_1" xmlns="http://www.w3.org/2000/svg" xmlns:xlink="http://www.w3.org/1999/xlink" x="0px" y="0px"
	 width="758px" height="766px" viewBox="73 14 758 766" style="enable-background:new 73 14 758 766;" xml:space="preserve">
<style type="text/css">
	.st0{fill:#FFFFFF;}
	.st1{fill:#032B45;}
</style>
<g>
	<path class="st0" d="M452,765.1L452,765.1C248.7,765.1,83.9,600.3,83.9,397l0,0C83.9,193.7,248.7,28.9,452,28.9l0,0
		c203.3,0,368.1,164.8,368.1,368.1l0,0C820.1,600.3,655.3,765.1,452,765.1z"/>
	<g>
		<path class="st1" d="M233.1,321.1H327v301.7h-93.9V321.1z M280.1,171.2c30,0,54.4,24.4,54.4,54.4S310.2,280,280.1,280
			s-54.4-24.4-54.4-54.4C225.6,195.5,249.9,171.2,280.1,171.2"/>
		<path class="st1" d="M385.9,321.1h89.9v41.2h1.3c12.5-23.7,43.1-48.7,88.8-48.7c94.9,0,112.5,62.5,112.5,143.7v165.5h-93.7V476.2
			c0-35-0.7-80-48.8-80c-48.8,0-56.3,38.1-56.3,77.4v149.3h-93.7L385.9,321.1L385.9,321.1z"/>
	</g>
</g>
</svg>
